<?xml version="1.0" encoding="UTF-8" standalone="no"?>
<!-- Created with Inkscape (http://www.inkscape.org/) -->

<svg
   xmlns:dc="http://purl.org/dc/elements/1.1/"
   xmlns:cc="http://creativecommons.org/ns#"
   xmlns:rdf="http://www.w3.org/1999/02/22-rdf-syntax-ns#"
   xmlns:svg="http://www.w3.org/2000/svg"
   xmlns="http://www.w3.org/2000/svg"
   xmlns:sodipodi="http://sodipodi.sourceforge.net/DTD/sodipodi-0.dtd"
   xmlns:inkscape="http://www.inkscape.org/namespaces/inkscape"
   width="256"
   height="256"
   id="svg2"
   version="1.1"
   inkscape:version="0.48.5 r10040"
   sodipodi:docname="blueboxer.svg"
   inkscape:export-filename="/Users/wes/src/personal/Blueboxer/assets/icon/ic_launcher.png"
   inkscape:export-xdpi="50.619999"
   inkscape:export-ydpi="50.619999">
  <defs
     id="defs4" />
  <sodipodi:namedview
     id="base"
     pagecolor="#ffffff"
     bordercolor="#666666"
     borderopacity="1.0"
     inkscape:pageopacity="0.0"
     inkscape:pageshadow="2"
     inkscape:zoom="1.88"
     inkscape:cx="180.75093"
     inkscape:cy="152.6085"
     inkscape:document-units="px"
     inkscape:current-layer="layer1"
     showgrid="false"
     inkscape:window-width="1554"
     inkscape:window-height="979"
     inkscape:window-x="0"
     inkscape:window-y="0"
     inkscape:window-maximized="0" />
  <metadata
     id="metadata7">
    <rdf:RDF>
      <cc:Work
         rdf:about="">
        <dc:format>image/svg+xml</dc:format>
        <dc:type
           rdf:resource="http://purl.org/dc/dcmitype/StillImage" />
        <dc:title></dc:title>
      </cc:Work>
    </rdf:RDF>
  </metadata>
  <g
     inkscape:label="Layer 1"
     inkscape:groupmode="layer"
     id="layer1"
     transform="translate(0,-796.36218)">
    <flowRoot
       xml:space="preserve"
       id="flowRoot3076"
       style="font-size:40px;font-style:normal;font-variant:normal;font-weight:normal;font-stretch:normal;text-align:start;line-height:125%;letter-spacing:0px;word-spacing:0px;writing-mode:lr-tb;text-anchor:start;fill:#000000;fill-opacity:1;stroke:none;font-family:Monospace;-inkscape-font-specification:Monospace"
       transform="translate(493.3333,40)"><flowRegion
         id="flowRegion3078"><rect
           id="rect3080"
           width="2207.6924"
           height="215.38461"
           x="715.38464"
           y="-901.48395" /></flowRegion><flowPara
         id="flowPara3082"
         style="font-size:144px;fill:none">BLUEBOXER</flowPara></flowRoot>    <path
       sodipodi:type="arc"
       style="fill:#373737;fill-opacity:1;fill-rule:nonzero;stroke:none"
       id="path3937"
       sodipodi:cx="-45.588234"
       sodipodi:cy="177.36218"
       sodipodi:rx="192.64706"
       sodipodi:ry="183.82353"
       d="m 147.05883,177.36218 a 192.64706,183.82353 0 1 1 -385.29413,0 192.64706,183.82353 0 1 1 385.29413,0 z"
       transform="matrix(0.64366411,0,0,0.67455998,157.34351,804.72075)" />
    <path
       inkscape:connector-curvature="0"
       id="path3060"
       d="m 72.540296,1021.2459 c -0.03932,-0.039 -0.03516,-7.5394 0.0042,-7.5967 0.01737,-0.025 0.611257,-0.5444 1.319809,-1.1537 0.708552,-0.6093 1.331773,-1.1549 1.384905,-1.2125 l 0.09661,-0.1048 0,-79.47902 c 0,-65.74839 -0.0097,-79.48717 -0.05663,-79.52605 -0.03388,-0.0281 -0.314358,-0.0518 -0.697806,-0.0589 l -0.641201,-0.0119 0,-7.02111 0,-7.02112 3.821891,-0.0215 3.821888,-0.0215 0.02147,-2.42625 0.02147,-2.42626 1.696229,-0.0215 1.696235,-0.0215 0.02147,-1.2024 0.02147,-1.20239 17.670868,-0.0215 17.67086,-0.0215 0.0215,-0.3634 0.0215,-0.3634 0.25554,-0.20559 0.25552,-0.20559 0.54153,0 0.54153,0 0.68379,-0.53494 c 0.66837,-0.52288 0.68912,-0.53523 0.92064,-0.54752 l 0.23686,-0.0126 0,-5.64694 0,-5.64695 -0.38649,-0.0115 c -0.21255,-0.006 -0.41202,-0.0207 -0.44324,-0.0321 -0.0802,-0.0291 0.2366,-0.61102 0.59061,-1.08473 0.92868,-1.24281 2.23921,-2.07545 3.81341,-2.42282 0.60749,-0.13404 1.90602,-0.13404 2.51351,0 0.61173,0.135 1.01868,0.27918 1.59892,0.56653 0.86055,0.42617 1.62416,1.06625 2.2145,1.85629 0.35398,0.47371 0.67086,1.05568 0.5906,1.08473 -0.0312,0.0113 -0.23069,0.0258 -0.44326,0.0321 l -0.38648,0.0115 0,5.73283 0,5.73283 0.30103,0.0124 0.30102,0.0124 0.53385,0.44923 0.53384,0.44922 0.45341,8.8e-4 c 0.38973,8.7e-4 0.47697,0.0142 0.62115,0.0966 0.27754,0.15871 0.34252,0.28399 0.36808,0.70969 l 0.0224,0.3739 17.32733,0.0215 17.32733,0.0215 0.0215,1.15945 0.0215,1.15945 2.27596,0.0215 2.27596,0.0215 0.0215,2.51214 0.0215,2.51214 2.89863,0.0215 2.89862,0.0215 0,6.89229 0,6.89228 -0.60845,0.0215 c -0.33467,0.0118 -0.62381,0.0368 -0.64254,0.0556 -0.0187,0.0188 -0.0107,0.0717 0.0179,0.11751 0.0829,0.13276 0.0611,0.26361 -0.066,0.39632 l -0.1181,0.12326 -0.0109,79.22452 c -0.0107,78.11758 -0.01,79.22558 0.0718,79.30138 0.0454,0.042 0.74954,0.6083 1.56475,1.2578 0.81518,0.6495 1.48829,1.2002 1.49581,1.2238 0.007,0.024 0.004,1.7338 -0.008,3.8005 l -0.0217,3.7574 -55.44241,0.011 c -30.493344,0.01 -55.455328,-0 -55.471071,-0.018 z m 59.987894,-193.01541 0.146,-0.14601 0,-5.16169 0,-5.1617 -0.146,-0.14601 -0.14601,-0.146 -1.46648,0 c -1.22682,0 -1.48707,0.0107 -1.59244,0.0651 -0.27153,0.14042 -0.25624,-0.18112 -0.25624,5.38857 0,4.44273 0.008,5.08706 0.065,5.19709 0.12848,0.24848 0.16005,0.25301 1.77511,0.25489 l 1.47509,0.001 z m -4.53333,-0.005 c 0.27153,-0.14041 0.25625,0.18112 0.25625,-5.38856 0,-5.56968 0.0153,-5.24815 -0.25625,-5.38857 -0.10539,-0.0545 -0.36564,-0.0651 -1.59246,-0.0651 l -1.46646,0 -0.146,0.14601 -0.14601,0.146 0,5.1617 0,5.1617 0.14601,0.146 0.146,0.146 1.46646,0 c 1.22682,0 1.48707,-0.0106 1.59246,-0.0651 z"
       style="fill:#3f51b5;fill-opacity:1"
       sodipodi:nodetypes="ccsccssscccccccccccccccccccsscccscssssscscccccccccscccccccccccccsscscssssscsccccccccssscsccsssscccccccss" />
    <g
       id="g4365"
       transform="matrix(0.29089448,0,0,0.29089448,22.623473,774.71714)">
      <rect
         y="327.01819"
         x="205.2272"
         height="92.749222"
         width="92.749222"
         id="rect3939"
         style="fill:#ffffff;fill-opacity:0.94117647;fill-rule:nonzero;stroke:none" />
      <rect
         style="fill:#ffffff;fill-opacity:0.94117647;fill-rule:nonzero;stroke:none"
         id="rect3941"
         width="92.749222"
         height="92.749222"
         x="315.8754"
         y="327.01819" />
      <rect
         y="327.01819"
         x="426.52359"
         height="92.749222"
         width="92.749222"
         id="rect3945"
         style="fill:#ffffff;fill-opacity:0.94117647;fill-rule:nonzero;stroke:none" />
      <rect
         style="fill:#ffffff;fill-opacity:0.94117647;fill-rule:nonzero;stroke:none"
         id="rect3954"
         width="92.749222"
         height="92.749222"
         x="205.2272"
         y="435.49683" />
      <rect
         y="435.49683"
         x="315.8754"
         height="92.749222"
         width="92.749222"
         id="rect3956"
         style="fill:#ffffff;fill-opacity:0.94117647;fill-rule:nonzero;stroke:none" />
      <rect
         style="fill:#ffffff;fill-opacity:0.94117647;fill-rule:nonzero;stroke:none"
         id="rect3958"
         width="92.749222"
         height="92.749222"
         x="426.52359"
         y="435.49683" />
      <rect
         y="543.9754"
         x="205.2272"
         height="92.749222"
         width="92.749222"
         id="rect3962"
         style="fill:#ffffff;fill-opacity:0.94117647;fill-rule:nonzero;stroke:none" />
      <rect
         style="fill:#ffffff;fill-opacity:0.94117647;fill-rule:nonzero;stroke:none"
         id="rect3964"
         width="92.749222"
         height="92.749222"
         x="315.8754"
         y="543.9754" />
      <rect
         y="543.9754"
         x="426.52359"
         height="92.749222"
         width="92.749222"
         id="rect3966"
         style="fill:#ffffff;fill-opacity:0.94117647;fill-rule:nonzero;stroke:none" />
      <rect
         style="fill:#ffffff;fill-opacity:0.94117647;fill-rule:nonzero;stroke:none"
         id="rect3970"
         width="92.749222"
         height="92.749222"
         x="205.2272"
         y="652.45404" />
      <rect
         y="652.45404"
         x="315.8754"
         height="92.749222"
         width="92.749222"
         id="rect3972"
         style="fill:#ffffff;fill-opacity:0.94117647;fill-rule:nonzero;stroke:none" />
      <rect
         style="fill:#ffffff;fill-opacity:0.94117647;fill-rule:nonzero;stroke:none"
         id="rect3974"
         width="92.749222"
         height="92.749222"
         x="426.52359"
         y="652.45404" />
    </g>
    <g
       id="g4339"
       transform="matrix(0.29089448,0,0,0.29089448,22.705857,774.71714)">
      <text
         sodipodi:linespacing="125%"
         id="text3976"
         y="387.62131"
         x="242.05103"
         style="font-size:40px;font-style:normal;font-variant:normal;font-weight:normal;font-stretch:normal;text-align:start;line-height:125%;letter-spacing:0px;word-spacing:0px;writing-mode:lr-tb;text-anchor:start;fill:#373737;fill-opacity:1;stroke:none;font-family:Roboto;-inkscape-font-specification:Roboto"
         xml:space="preserve"><tspan
           y="387.62131"
           x="242.05103"
           id="tspan3978"
           sodipodi:role="line">1</tspan></text>
      <text
         xml:space="preserve"
         style="font-size:40px;font-style:normal;font-variant:normal;font-weight:normal;font-stretch:normal;text-align:start;line-height:125%;letter-spacing:0px;word-spacing:0px;writing-mode:lr-tb;text-anchor:start;fill:#373737;fill-opacity:1;stroke:none;font-family:Roboto;-inkscape-font-specification:Roboto"
         x="350.85352"
         y="387.81662"
         id="text3983"
         sodipodi:linespacing="125%"><tspan
           sodipodi:role="line"
           id="tspan3985"
           x="350.85352"
           y="387.81662">2</tspan></text>
      <text
         sodipodi:linespacing="125%"
         id="text3987"
         y="387.61154"
         x="461.64819"
         style="font-size:40px;font-style:normal;font-variant:normal;font-weight:normal;font-stretch:normal;text-align:start;line-height:125%;letter-spacing:0px;word-spacing:0px;writing-mode:lr-tb;text-anchor:start;fill:#373737;fill-opacity:1;stroke:none;font-family:Roboto;-inkscape-font-specification:Roboto"
         xml:space="preserve"><tspan
           y="387.61154"
           x="461.64819"
           id="tspan3989"
           sodipodi:role="line">3</tspan></text>
      <text
         sodipodi:linespacing="125%"
         id="text3991"
         y="496.09018"
         x="240.02954"
         style="font-size:40px;font-style:normal;font-variant:normal;font-weight:normal;font-stretch:normal;text-align:start;line-height:125%;letter-spacing:0px;word-spacing:0px;writing-mode:lr-tb;text-anchor:start;fill:#373737;fill-opacity:1;stroke:none;font-family:Roboto;-inkscape-font-specification:Roboto"
         xml:space="preserve"><tspan
           y="496.09018"
           x="240.02954"
           id="tspan3993"
           sodipodi:role="line">4</tspan></text>
      <text
         sodipodi:linespacing="125%"
         id="text3995"
         y="495.8851"
         x="350.69727"
         style="font-size:40px;font-style:normal;font-variant:normal;font-weight:normal;font-stretch:normal;text-align:start;line-height:125%;letter-spacing:0px;word-spacing:0px;writing-mode:lr-tb;text-anchor:start;fill:#373737;fill-opacity:1;stroke:none;font-family:Roboto;-inkscape-font-specification:Roboto"
         xml:space="preserve"><tspan
           y="495.8851"
           x="350.69727"
           id="tspan3997"
           sodipodi:role="line">5</tspan></text>
      <text
         sodipodi:linespacing="125%"
         id="text3999"
         y="496.09018"
         x="461.09155"
         style="font-size:40px;font-style:normal;font-variant:normal;font-weight:normal;font-stretch:normal;text-align:start;line-height:125%;letter-spacing:0px;word-spacing:0px;writing-mode:lr-tb;text-anchor:start;fill:#373737;fill-opacity:1;stroke:none;font-family:Roboto;-inkscape-font-specification:Roboto"
         xml:space="preserve"><tspan
           y="496.09018"
           x="461.09155"
           id="tspan4001"
           sodipodi:role="line">6</tspan></text>
      <text
         sodipodi:linespacing="125%"
         id="text4003"
         y="604.56879"
         x="240.33228"
         style="font-size:40px;font-style:normal;font-variant:normal;font-weight:normal;font-stretch:normal;text-align:start;line-height:125%;letter-spacing:0px;word-spacing:0px;writing-mode:lr-tb;text-anchor:start;fill:#373737;fill-opacity:1;stroke:none;font-family:Roboto;-inkscape-font-specification:Roboto"
         xml:space="preserve"><tspan
           y="604.56879"
           x="240.33228"
           id="tspan4005"
           sodipodi:role="line">7</tspan></text>
      <text
         sodipodi:linespacing="125%"
         id="text4007"
         y="604.56879"
         x="350.66797"
         style="font-size:40px;font-style:normal;font-variant:normal;font-weight:normal;font-stretch:normal;text-align:start;line-height:125%;letter-spacing:0px;word-spacing:0px;writing-mode:lr-tb;text-anchor:start;fill:#373737;fill-opacity:1;stroke:none;font-family:Roboto;-inkscape-font-specification:Roboto"
         xml:space="preserve"><tspan
           y="604.56879"
           x="350.66797"
           id="tspan4009"
           sodipodi:role="line">8</tspan></text>
      <text
         sodipodi:linespacing="125%"
         id="text4011"
         y="604.56879"
         x="461.42358"
         style="font-size:40px;font-style:normal;font-variant:normal;font-weight:normal;font-stretch:normal;text-align:start;line-height:125%;letter-spacing:0px;word-spacing:0px;writing-mode:lr-tb;text-anchor:start;fill:#373737;fill-opacity:1;stroke:none;font-family:Roboto;-inkscape-font-specification:Roboto"
         xml:space="preserve"><tspan
           y="604.56879"
           x="461.42358"
           id="tspan4013"
           sodipodi:role="line">9</tspan></text>
      <text
         sodipodi:linespacing="125%"
         id="text4015"
         y="713.04742"
         x="239.98071"
         style="font-size:40px;font-style:normal;font-variant:normal;font-weight:normal;font-stretch:normal;text-align:start;line-height:125%;letter-spacing:0px;word-spacing:0px;writing-mode:lr-tb;text-anchor:start;fill:#373737;fill-opacity:1;stroke:none;font-family:Roboto;-inkscape-font-specification:Roboto"
         xml:space="preserve"><tspan
           y="713.04742"
           x="239.98071"
           id="tspan4017"
           sodipodi:role="line">#</tspan></text>
      <text
         sodipodi:linespacing="125%"
         id="text4019"
         y="713.04742"
         x="350.66797"
         style="font-size:40px;font-style:normal;font-variant:normal;font-weight:normal;font-stretch:normal;text-align:start;line-height:125%;letter-spacing:0px;word-spacing:0px;writing-mode:lr-tb;text-anchor:start;fill:#373737;fill-opacity:1;stroke:none;font-family:Roboto;-inkscape-font-specification:Roboto"
         xml:space="preserve"><tspan
           y="713.04742"
           x="350.66797"
           id="tspan4021"
           sodipodi:role="line">0</tspan></text>
      <text
         sodipodi:linespacing="125%"
         id="text4023"
         y="718.565"
         x="463.96265"
         style="font-size:40px;font-style:normal;font-variant:normal;font-weight:normal;font-stretch:normal;text-align:start;line-height:125%;letter-spacing:0px;word-spacing:0px;writing-mode:lr-tb;text-anchor:start;fill:#373737;fill-opacity:1;stroke:none;font-family:Roboto;-inkscape-font-specification:Roboto"
         xml:space="preserve"><tspan
           y="718.565"
           x="463.96265"
           id="tspan4025"
           sodipodi:role="line">*</tspan></text>
    </g>
    <g
       id="g4332"
       transform="matrix(0.29089448,0,0,0.29089448,22.488805,774.71714)">
      <rect
         y="239.86804"
         x="210.82722"
         height="30.792387"
         width="303.77145"
         id="rect4102"
         style="fill:#373737;fill-opacity:1;fill-rule:nonzero;stroke:none" />
      <flowRoot
         transform="matrix(1.9974166,0,0,2.0285962,-369.78655,-263.44892)"
         style="font-size:14.90352917px;font-style:normal;font-variant:normal;font-weight:normal;font-stretch:normal;text-align:start;line-height:125%;letter-spacing:4.92951727px;word-spacing:0px;writing-mode:lr-tb;text-anchor:start;fill:#ffffff;fill-opacity:1;stroke:none;font-family:Roboto;-inkscape-font-specification:Roboto"
         id="flowRoot4104"
         xml:space="preserve"><flowRegion
           id="flowRegion4106"><rect
             style="font-size:14.90352917px;font-style:normal;font-variant:normal;font-weight:normal;font-stretch:normal;letter-spacing:4.92951727px;fill:#ffffff;fill-opacity:1;font-family:Roboto;-inkscape-font-specification:Roboto"
             y="246.26462"
             x="234.14635"
             height="23.170732"
             width="264.63416"
             id="rect4108" /></flowRegion><flowPara
           style="font-size:14.90352917px;font-style:normal;font-variant:normal;font-weight:normal;font-stretch:normal;text-align:center;letter-spacing:4.92951727px;text-anchor:middle;fill:#ffffff;fill-opacity:1;font-family:Roboto;-inkscape-font-specification:Roboto"
           id="flowPara4110">BLUEBOXER</flowPara></flowRoot>    </g>
  </g>
</svg>
